<?xml version="1.0" encoding="iso-8859-1"?>
<!-- Uploaded to: SVG Repo, www.svgrepo.com, Generator: SVG Repo Mixer Tools -->
<svg height="800px" width="800px" version="1.1" id="Layer_1" xmlns="http://www.w3.org/2000/svg" xmlns:xlink="http://www.w3.org/1999/xlink" 
	 viewBox="0 0 473.654 473.654" xml:space="preserve">
<circle style="fill:#357180;" cx="236.827" cy="236.827" r="236.827"/>
<path style="fill:#FFFFFF;" d="M330.242,111.192c-27.011-17.314-54.018-34.625-81.029-51.939c-2.891-1.855-5.688-1.249-7.632,0.471
	c-1.683,1.088-2.887,2.921-2.887,5.55c0,11.286,0,22.568,0,33.858c-81.47,3.837-145.372,69.119-146.954,151.217
	c-1.612,83.598,70.244,149.852,151.415,151.415c25.332,0.49,25.287-38.776,0-39.266c-62.077-1.197-110.957-50.077-112.15-112.15
	c-1.17-60.536,49.288-108.526,107.688-111.948c0,10.246,0,20.497,0,30.751c0,5.172,5.987,9.035,10.564,6.099
	c27.011-17.314,54.018-34.625,81.029-51.939C334.834,120.396,334.759,114.091,330.242,111.192z"/>
</svg>